<svg xmlns="http://www.w3.org/2000/svg">
    <symbol id="logo" viewBox="0 0 190 29">
        <path d="M39.3141 21.6096H40.2564V28.2056H39.3141V21.6096ZM51.9272 22.4294H49.6657V21.6096H55.1215V22.4294H52.86V28.2056H51.9272V22.4294ZM78.4002 28.2809C77.7406 28.2809 77.1438 28.1365 76.6098 27.8475C76.0822 27.5523 75.6676 27.1502 75.366 26.6414C75.0645 26.1263 74.9137 25.5483 74.9137 24.9076C74.9137 24.2668 75.0645 23.6921 75.366 23.1832C75.6676 22.6681 76.0853 22.2661 76.6193 21.9771C77.1532 21.6819 77.75 21.5342 78.4096 21.5342C78.9247 21.5342 79.3958 21.6222 79.823 21.7981C80.2502 21.9677 80.6145 22.2221 80.9161 22.5613L80.3036 23.155C79.8073 22.6336 79.1885 22.3729 78.4473 22.3729C77.9573 22.3729 77.5144 22.4828 77.1187 22.7027C76.7229 22.9225 76.412 23.2272 76.1858 23.6167C75.966 23.9999 75.856 24.4302 75.856 24.9076C75.856 25.385 75.966 25.8185 76.1858 26.2079C76.412 26.5911 76.7229 26.8927 77.1187 27.1125C77.5144 27.3324 77.9573 27.4423 78.4473 27.4423C79.1823 27.4423 79.801 27.1785 80.3036 26.6508L80.9161 27.2444C80.6145 27.5837 80.247 27.8412 79.8136 28.0171C79.3864 28.193 78.9153 28.2809 78.4002 28.2809ZM93.4861 28.2809C92.8202 28.2809 92.2203 28.1365 91.6864 27.8475C91.1524 27.5523 90.7315 27.1471 90.4237 26.632C90.1222 26.1168 89.9714 25.5421 89.9714 24.9076C89.9714 24.2731 90.1222 23.6983 90.4237 23.1832C90.7315 22.6681 91.1524 22.2661 91.6864 21.9771C92.2203 21.6819 92.8202 21.5342 93.4861 21.5342C94.1457 21.5342 94.7425 21.6819 95.2765 21.9771C95.8104 22.2661 96.2282 22.6681 96.5297 23.1832C96.8312 23.6921 96.982 24.2668 96.982 24.9076C96.982 25.5483 96.8312 26.1263 96.5297 26.6414C96.2282 27.1502 95.8104 27.5523 95.2765 27.8475C94.7425 28.1365 94.1457 28.2809 93.4861 28.2809ZM93.4861 27.4423C93.9698 27.4423 94.4033 27.3324 94.7865 27.1125C95.1759 26.8927 95.4806 26.5911 95.7005 26.2079C95.9266 25.8185 96.0397 25.385 96.0397 24.9076C96.0397 24.4302 95.9266 23.9999 95.7005 23.6167C95.4806 23.2272 95.1759 22.9225 94.7865 22.7027C94.4033 22.4828 93.9698 22.3729 93.4861 22.3729C93.0024 22.3729 92.5627 22.4828 92.1669 22.7027C91.7775 22.9225 91.4696 23.2272 91.2435 23.6167C91.0236 23.9999 90.9137 24.4302 90.9137 24.9076C90.9137 25.385 91.0236 25.8185 91.2435 26.2079C91.4696 26.5911 91.7775 26.8927 92.1669 27.1125C92.5627 27.3324 93.0024 27.4423 93.4861 27.4423ZM112.924 28.2056L112.914 23.3999L110.53 27.4046H110.097L107.713 23.4282V28.2056H106.808V21.6096H107.581L110.333 26.2456L113.046 21.6096H113.819L113.828 28.2056H112.924ZM126.767 21.6096C127.621 21.6096 128.293 21.8138 128.783 22.2221C129.273 22.6304 129.518 23.1926 129.518 23.9088C129.518 24.6249 129.273 25.1871 128.783 25.5955C128.293 26.0038 127.621 26.2079 126.767 26.2079H125.137V28.2056H124.194V21.6096H126.767ZM126.738 25.3882C127.335 25.3882 127.791 25.2625 128.105 25.0112C128.419 24.7537 128.576 24.3862 128.576 23.9088C128.576 23.4314 128.419 23.067 128.105 22.8157C127.791 22.5582 127.335 22.4294 126.738 22.4294H125.137V25.3882H126.738ZM143.16 26.5566H139.655L138.929 28.2056H137.959L140.946 21.6096H141.879L144.875 28.2056H143.886L143.16 26.5566ZM142.83 25.8028L141.407 22.5707L139.985 25.8028H142.83ZM159.918 21.6096V28.2056H159.145L155.187 23.2869V28.2056H154.245V21.6096H155.018L158.975 26.5283V21.6096H159.918ZM172.804 25.9253V28.2056H171.871V25.9064L169.251 21.6096H170.259L172.37 25.0866L174.49 21.6096H175.423L172.804 25.9253Z"/>
        <path d="M190 7.76629H186.656V11.0335H184.176V7.76629H180.852V5.42155H184.176V2.1543H186.656V5.42155H190V7.76629Z"/>
        <path fill-rule="evenodd" clip-rule="evenodd" d="M7.24605 7.26352V0.0429688H6.82051C3.05365 0.0429688 0 3.09662 0 6.86348V7.26352H7.24605ZM7.24605 8.56267L0 8.56267V21.4789C0 25.2457 3.05365 28.2994 6.82052 28.2994H20.3891L20.3891 21.3852H7.89563H7.24605V20.7356V8.56267ZM15.8888 8.56267L20.3891 18.3348L20.3892 8.56267H15.8888ZM17.7801 15.7752L19.7654 20.0861H9.01513L11.0571 15.7752H17.7801ZM17.1818 14.4761L14.5323 8.72289H14.3977L11.6725 14.4761H17.1818ZM13.0361 8.56267L8.5452 18.0434V8.56267H13.0361ZM21.6883 20.0861L21.6883 7.9131V7.26352H21.0387H8.5452V0.0429688H21.7607C25.5275 0.0429688 28.5812 3.09662 28.5812 6.86348V20.0861H21.6883ZM21.6883 21.3852L21.6883 28.2994H21.7607C25.5276 28.2994 28.5812 25.2457 28.5812 21.4789V21.3852H21.6883Z"/>
        <path fill-rule="evenodd" clip-rule="evenodd" d="M109.747 2.76756H113.907V13.684H117.02V2.76756H121.326V0.230629H111.268L109.747 2.76756ZM133.17 13.0306C134.285 13.62 135.528 13.9147 136.899 13.9147C138.065 13.9147 139.122 13.7097 140.07 13.2996C141.018 12.8896 141.812 12.2938 142.453 11.5123L140.454 9.66723C139.544 10.7307 138.417 11.2624 137.072 11.2624C136.239 11.2624 135.496 11.083 134.842 10.7243C134.189 10.3527 133.676 9.8402 133.305 9.18675C132.946 8.5333 132.766 7.79016 132.766 6.95733C132.766 6.1245 132.946 5.38136 133.305 4.72791C133.676 4.07446 134.189 3.56835 134.842 3.2096C135.496 2.83803 136.239 2.65224 137.072 2.65224C138.417 2.65224 139.544 3.17756 140.454 4.22821L142.453 2.38317C141.812 1.61441 141.018 1.02502 140.07 0.615013C139.134 0.205004 138.084 0 136.918 0C135.534 0 134.285 0.3011 133.17 0.9033C132.068 1.49269 131.197 2.31911 130.556 3.38257C129.928 4.43322 129.615 5.6248 129.615 6.95733C129.615 8.28986 129.928 9.48785 130.556 10.5513C131.197 11.602 132.068 12.4284 133.17 13.0306ZM42.9459 10.8012H49.1922L50.3837 13.684H53.651L47.6354 0.230629H44.5603L38.564 13.684H41.7543L42.9459 10.8012ZM46.0787 3.28647L48.212 8.4372H43.9453L46.0787 3.28647ZM67.9621 13.684V0.230629H64.887V8.39877L58.1987 0.230629H55.6234V13.684H58.6984V5.51589L65.4059 13.684H67.9621ZM80.5817 10.8012H74.3355L73.1439 13.684H69.9535L75.9499 0.230629H79.0249L85.0405 13.684H81.7733L80.5817 10.8012ZM79.6015 8.4372L77.4682 3.28647L75.3348 8.4372H79.6015ZM90.1264 0.230629H87.0129V13.684H96.8723V11.1471H90.1264V0.230629ZM104.257 8.91768V13.684H101.144V8.87924L95.9354 0.230629H99.2411L102.835 6.20778L106.429 0.230629H109.485L104.257 8.91768ZM123.577 0.230629H126.691V13.684H123.577V0.230629ZM150.997 13.9147C149.075 13.9147 147.576 13.3829 146.499 12.3195C145.436 11.256 144.904 9.7377 144.904 7.76453V0.230629H148.018V7.64922C148.018 10.058 149.017 11.2624 151.016 11.2624C151.99 11.2624 152.733 10.9741 153.245 10.3976C153.758 9.80817 154.014 8.89206 154.014 7.64922V0.230629H157.089V7.76453C157.089 9.7377 156.551 11.256 155.475 12.3195C154.411 13.3829 152.919 13.9147 150.997 13.9147ZM172.966 5.61199L172.985 13.684H175.906L175.868 0.230629H173.312L168.353 8.59096L163.318 0.230629H160.742V13.684H163.664V5.78496L167.604 12.2618H169.007L172.966 5.61199Z"/>
    </symbol>

    <symbol id="smile" viewBox="0 0 50 51">
        <g clip-path="url(#clip0_510_8)">
            <path fill-rule="evenodd" clip-rule="evenodd" d="M47.3833 35.9848C47.8271 35.1059 47.3912 34.0588 46.4823 33.6804C45.5734 33.302 44.5366 33.7365 44.0818 34.6097C42.4648 37.7145 40.0855 40.3704 37.1554 42.3207C33.7291 44.6012 29.7036 45.8144 25.5878 45.807C21.472 45.7997 17.4508 44.572 14.0328 42.2792C11.1097 40.3185 8.73991 37.6541 7.13404 34.5435C6.68242 33.6687 5.64717 33.2305 4.73693 33.6056C3.82668 33.9807 3.38701 35.0263 3.82764 35.9067C5.70964 39.6671 8.5378 42.8864 12.0467 45.2401C16.0504 47.9256 20.7605 49.3637 25.5814 49.3723C30.4023 49.3809 35.1176 47.9598 39.1308 45.2886C42.6482 42.9475 45.4878 39.7384 47.3833 35.9848Z"/>
            <path fill-rule="evenodd" clip-rule="evenodd" d="M11 19.3723C10.1716 19.3723 9.5 18.7007 9.5 17.8723L9.5 9.37235C9.50001 8.54392 10.1716 7.87235 11 7.87235C11.8284 7.87235 12.5 8.54392 12.5 9.37235L12.5 17.8723C12.5 18.7007 11.8284 19.3723 11 19.3723Z"/>
        </g>
        <defs>
            <clipPath id="clip0_510_8">
                <rect width="50" height="50" fill="white" transform="translate(0 0.372314)"/>
            </clipPath>
        </defs>
    </symbol>

    <symbol id="runner" fill="none" viewBox="0 0 50 51">
        <g clip-path="url(#clip0_519_32)">
            <circle cx="29.9494" cy="8.84422" r="5.97191" stroke="var(--runner-head-color, white)"  stroke-width="3"/>
            <path d="M28.882 48.8723C28.882 48.8723 37.8299 40.9292 34.7528 36.597C31.9742 32.685 22.4775 36.0633 22.4775 36.0633L27.8146 20.5858C27.8146 20.5858 34.4381 27.5075 38.4888 25.3891C41.7143 23.7023 42.7584 18.4509 42.7584 18.4509" stroke="var(--runner-body-color, #F3F2FC)" stroke-width="3" stroke-linecap="round"/>
            <path d="M9.28731 21.5443C9.07238 22.3443 9.54671 23.1672 10.3468 23.3821C11.1468 23.597 11.9696 23.1227 12.1846 22.3226L9.28731 21.5443ZM21.4553 18.5484L22.8735 19.037L23.8506 16.2006L22.4324 15.712L21.4553 18.5484ZM15.5393 16.5966L16.0536 18.0057L15.5393 16.5966ZM10.7359 21.9335C12.1846 22.3226 12.1844 22.3232 12.1843 22.3237C12.1843 22.3239 12.1841 22.3244 12.184 22.3247C12.1839 22.3253 12.1837 22.3259 12.1836 22.3264C12.1833 22.3274 12.1831 22.3282 12.1829 22.3288C12.1826 22.3299 12.1825 22.3301 12.1827 22.3295C12.1831 22.3281 12.1845 22.3233 12.1869 22.315C12.1918 22.2986 12.2009 22.2688 12.2145 22.2273C12.2418 22.1441 12.2869 22.0147 12.3527 21.8512C12.485 21.5225 12.6962 21.0669 13.0055 20.5765C13.629 19.5876 14.5978 18.537 16.0536 18.0057L15.025 15.1876C12.7448 16.0198 11.312 17.6376 10.4678 18.9763C10.0433 19.6496 9.75413 20.2726 9.56952 20.7314C9.47683 20.9618 9.40942 21.1535 9.36373 21.2929C9.34085 21.3626 9.32334 21.4196 9.31077 21.462C9.30448 21.4832 9.29941 21.5008 9.29552 21.5146C9.29358 21.5214 9.29193 21.5274 9.29056 21.5323C9.28988 21.5348 9.28926 21.5371 9.28872 21.5391C9.28845 21.5401 9.2882 21.541 9.28796 21.5419C9.28785 21.5423 9.28768 21.5429 9.28763 21.5431C9.28747 21.5437 9.28731 21.5443 10.7359 21.9335ZM16.0536 18.0057C16.8254 17.724 18.0768 17.7804 19.3536 18.0159C19.9503 18.1259 20.4837 18.2614 20.8679 18.3697C21.0592 18.4235 21.2112 18.47 21.3132 18.5022C21.3641 18.5183 21.4023 18.5308 21.4265 18.5388C21.4386 18.5428 21.4471 18.5457 21.452 18.5473C21.4544 18.5481 21.4559 18.5487 21.4565 18.5488C21.4567 18.5489 21.4568 18.549 21.4566 18.5489C21.4565 18.5489 21.4563 18.5488 21.4561 18.5487C21.456 18.5487 21.4558 18.5486 21.4557 18.5486C21.4555 18.5485 21.4553 18.5484 21.9438 17.1302C22.4324 15.712 22.4321 15.7119 22.4318 15.7118C22.4317 15.7118 22.4314 15.7117 22.4312 15.7116C22.4307 15.7114 22.4302 15.7113 22.4296 15.7111C22.4284 15.7106 22.427 15.7102 22.4253 15.7096C22.4219 15.7084 22.4176 15.707 22.4123 15.7052C22.4017 15.7016 22.3872 15.6967 22.3691 15.6907C22.3328 15.6787 22.2818 15.6621 22.2175 15.6418C22.0889 15.6011 21.9064 15.5454 21.6814 15.482C21.2332 15.3558 20.6074 15.1965 19.8978 15.0656C18.5617 14.8192 16.6109 14.6087 15.025 15.1876L16.0536 18.0057Z" fill="var(--runner-body-color, #F3F2FC)"/>
            <path d="M22.4775 36.0633C22.4775 36.0633 19.3779 44.7781 14.4719 45.1362C10.4358 45.4309 7 39.2654 7 39.2654" stroke="var(--runner-body-color, #F3F2FC)" stroke-width="3" stroke-linecap="round"/>
        </g>
        <defs>
            <clipPath id="clip0_519_32">
                <rect width="50" height="50" fill="white" transform="translate(0 0.372314)"/>
            </clipPath>
        </defs>
    </symbol>

    <symbol id="pointer" fill="none" viewBox="0 0 21 28">
        <path d="M20.2049 11.1359C20.2049 12.4463 19.6074 14.1027 18.6466 15.896C17.6935 17.6747 16.4169 19.5271 15.1311 21.2123C13.8468 22.8957 12.5613 24.4021 11.5962 25.4883C11.1139 26.0311 10.7123 26.4683 10.4315 26.7694C10.404 26.7989 10.3776 26.8272 10.3524 26.8541C10.3272 26.8272 10.3009 26.7989 10.2733 26.7694C9.9926 26.4683 9.59093 26.0311 9.10864 25.4883C8.14358 24.4021 6.85806 22.8957 5.57373 21.2123C4.28799 19.5271 3.01133 17.6747 2.05829 15.896C1.09741 14.1027 0.5 12.4463 0.5 11.1359C0.5 5.65705 4.91393 1.2207 10.3524 1.2207C15.7909 1.2207 20.2049 5.65705 20.2049 11.1359Z"/>
        <circle cx="10" cy="10.7207" r="2.5"/>
    </symbol>

    <symbol id="phone" viewBox="0 0 19 28">
        <rect x="0.5" y="1.36035" width="18" height="26" rx="0.5" fill="none"/>
        <rect x="0.5" y="4.36035" width="18" height="17" rx="0.5" fill="none"/>
        <circle cx="9.5" cy="24.3604" r="1.5" stroke="none"/>
    </symbol>

    <symbol id="vk" viewBox="0 0 30 30">
       <path fill-rule="evenodd" clip-rule="evenodd" d="M2.10883 2.10883C0 4.21766 0 7.61175 0 14.4V15.6C0 22.3883 0 25.7823 2.10883 27.8912C4.21766 30 7.61175 30 14.4 30H15.6C22.3883 30 25.7823 30 27.8912 27.8912C30 25.7823 30 22.3883 30 15.6V14.4C30 7.61175 30 4.21766 27.8912 2.10883C25.7823 0 22.3883 0 15.6 0H14.4C7.61175 0 4.21766 0 2.10883 2.10883ZM5.0625 9.12598C5.225 16.926 9.12494 21.6135 15.9624 21.6135H16.3501V17.151C18.8626 17.401 20.7624 19.2385 21.5249 21.6135H25.075C24.1 18.0635 21.5374 16.101 19.9374 15.351C21.5374 14.426 23.7874 12.176 24.3249 9.12598H21.0998C20.3998 11.601 18.3251 13.851 16.3501 14.0635V9.12598H13.1249V17.776C11.1249 17.276 8.6 14.851 8.4875 9.12598H5.0625Z"/>
    </symbol>

    <symbol id="youtube" viewBox="0 0 30 30">
        <path fill-rule="evenodd" clip-rule="evenodd" d="M4.3064 0C1.92804 0 0 1.92804 0 4.3064V25.6936C0 28.072 1.92804 30 4.3064 30H25.6936C28.072 30 30 28.072 30 25.6936V4.3064C30 1.92804 28.072 0 25.6936 0H4.3064ZM24.6611 10.5396C24.5455 10.1187 24.3178 9.73462 24.0006 9.42571C23.6834 9.11679 23.288 8.89391 22.8538 8.77937C21.2556 8.36347 14.8673 8.36347 14.8673 8.36347C14.8673 8.36347 8.47901 8.36347 6.88078 8.77937C6.44662 8.89391 6.05117 9.11679 5.73399 9.42571C5.41682 9.73462 5.18905 10.1187 5.07347 10.5396C4.64604 12.093 4.64604 15.3325 4.64604 15.3325C4.64604 15.3325 4.64604 18.572 5.07347 20.1254C5.18905 20.5463 5.41682 20.9304 5.73399 21.2393C6.05117 21.5482 6.44662 21.7711 6.88078 21.8857C8.47901 22.3015 14.8673 22.3015 14.8673 22.3015C14.8673 22.3015 21.2556 22.3015 22.8538 21.8857C23.288 21.7711 23.6834 21.5482 24.0006 21.2393C24.3178 20.9304 24.5455 20.5463 24.6611 20.1254C25.0885 18.572 25.0885 15.3325 25.0885 15.3325C25.0885 15.3325 25.0885 12.093 24.6611 10.5396ZM12.7766 18.2741L18.1195 15.3325L12.7766 12.3909V18.2741Z"/>
    </symbol>

    <symbol id="telegram" viewBox="0 0 30 30">
        <path fill-rule="evenodd" clip-rule="evenodd" d="M30 15C30 23.2843 23.2843 30 15 30C6.71573 30 0 23.2843 0 15C0 6.71573 6.71573 0 15 0C23.2843 0 30 6.71573 30 15ZM15.5375 11.0741C14.0785 11.681 11.1626 12.937 6.78981 14.8421C6.07973 15.1245 5.70777 15.4007 5.6739 15.6708C5.61668 16.1273 6.18833 16.3071 6.96679 16.5519C7.07267 16.5852 7.18239 16.6197 7.29486 16.6562C8.06074 16.9052 9.09098 17.1964 9.62655 17.208C10.1124 17.2185 10.6546 17.0182 11.2532 16.6071C15.3389 13.8492 17.4479 12.4552 17.5803 12.4252C17.6737 12.404 17.8032 12.3773 17.8909 12.4553C17.9786 12.5332 17.97 12.6809 17.9607 12.7205C17.9041 12.9619 15.6601 15.0481 14.4988 16.1277C14.1368 16.4643 13.88 16.703 13.8275 16.7575C13.7099 16.8797 13.5901 16.9952 13.4749 17.1062C12.7634 17.7921 12.2298 18.3065 13.5045 19.1465C14.117 19.5501 14.6071 19.8839 15.0961 20.2169C15.6301 20.5806 16.1628 20.9433 16.852 21.3951C17.0275 21.5101 17.1952 21.6297 17.3585 21.7461C17.98 22.1892 18.5384 22.5872 19.2282 22.5238C19.629 22.4869 20.043 22.11 20.2533 20.9859C20.7502 18.3294 21.727 12.5735 21.9527 10.2017C21.9725 9.99387 21.9476 9.72792 21.9276 9.61118C21.9077 9.49443 21.8659 9.32809 21.7142 9.20496C21.5344 9.05913 21.257 9.02838 21.1329 9.03056C20.5687 9.0405 19.7031 9.34148 15.5375 11.0741Z"/>
    </symbol>
</svg>