<svg width="47" height="47" viewBox="0 0 47 47" fill="none" xmlns="http://www.w3.org/2000/svg">
<path fill-rule="evenodd" clip-rule="evenodd" d="M11.9155 12.022V0H11.2159C5.02153 0 0 5.02154 0 11.2159V12.022L11.9155 12.022ZM11.9155 14.1584L0 14.1584V35.7841C0 41.9785 5.02154 47 11.2159 47H33.528L33.528 35.4864H12.9837H11.9155V34.4182V14.1584ZM26.1197 14.1584L33.528 30.43L33.528 14.1584L26.1197 14.1584ZM29.2344 26.1553L32.5101 33.35H14.816L18.1854 26.1553H29.2344ZM28.2617 24.0189L23.8936 14.4248H23.6787L19.1858 24.0189H28.2617ZM21.4445 14.1584L14.0518 29.9445V14.1584L21.4445 14.1584ZM35.6644 33.35L35.6644 13.0902L35.6644 12.0221H34.5962L14.0518 12.022V0H35.7841C41.9785 0 47 5.02153 47 11.2159V33.35H35.6644ZM35.6644 35.4864L35.6643 47H35.7841C41.9785 47 47 41.9785 47 35.7841V35.4864H35.6644Z" fill="#211041"/>
</svg>
